<svg version="1.2" xmlns="http://www.w3.org/2000/svg" viewBox="0 0 999 816" width="999" height="816">
	<title>Polytoria Brick</title>
	<path fill-rule="evenodd" d="m532 89q0-19 0.5-19 0.5 0 1-5.5 0.5-5.5 1.5-5.5 1 0 1-2 0-8 2-8 1 0 1-2 1-3 2-3 0 0 1-2 0-3 17-22 5-5 10-8 0 0 4-2 1-1 3-1 1 0 1-0.5 0-0.5 2-1.5 0 0 2-1l2-1h1q0-1 2-1 0 0 1 0 1 0 3-1 0 0 2 0 0-2 64-3 33 0 65.5 0 32.5 0 65.5 0 65 1 65 2 0 1 4 1.5 4 0.5 4 1.5 0 1 0 1 0 0 0.5-0.5 0.5-0.5 0.5-0.5 0 0 0 1 0 0 2 1 0 0 3 1 0 1 1 1 1 0 4 2 0 0 4 2l6 4q2 2 3 4 0 0 1 1 1 0 4.5 3.5 3.5 3.5 6.5 7.5 0 0 3 4l1 1q-1 1-1 1.5 0 0.5 1 1.5 1 1 1 2 0 1 1 1 1 0 1.5 2.5 0.5 2.5 1.5 2.5 0 0 0.5 2.5 0.5 2.5 1.5 4.5 0 0 1 3 3 2 3 42 0 0 0 24h9q8 0 8 1 0 1 3 1 3 0 8 1 5 1 8.5 2 3.5 1 3.5 1.5 0 0.5 2 1 2 0.5 2 1.5 0 0 1 0 1 0 2.5 1 1.5 1 2.5 1 1 0 1 1 0 1 3 2 0 0 2 1 0 1 1 1 1 0 9.5 9.5 8.5 9.5 8.5 10.5 0 0 2 1v2q2 1 2 2 0 0 0 1 1 0 1 1.5 0 1.5 1 3.5 1 2 2 3 2 5 3 9 2 0 2 144 1 73 1 145 0 72-1 145 0 144-3 144 0 0-4 8-4 8-9 16-4 8-7 8 0 0-2 1.5-2 1.5-3 2.5-1 1-1.5 1-0.5 0-0.5 0 0 0-1.5 1.5-1.5 1.5-3.5 3.5 0 0-2 1l-2 1q-2 1-2 2 0 0-0.5 0-0.5 0-0.5-0.5 0-0.5-1-0.5 0 0 0 1 0 1-1 1-1 0-4 1-4 2-6.5 3-2.5 1-3 1-0.5 0-1.5 0-3 2-441 2-441 0-441-2 0 0-4-1.5-4-1.5-8-3-4-1.5-4-2 0-0.5-2-0.5-1 0-3-2-2-2-3-2-1 0-2-1-1-1-2-1.5-1-0.5-1-1.5 0-1-1-1 0-1-1-1-1 0-3.5-2-2.5-2-4.5-5-2-3-4-6-2-3-4-5 0 0-1-2l-1-3q-2-2-3-5 0 0-1-3l-2-2q0-2 0-4 0 0-1-2-1 0-2-143.5-1-143.5-1-287 0-143.5 3-143.5 0 0 2-6 2-6 5-12.5 3-6.5 5-6.5 1 0 1-1 0-1 7.5-9 7.5-8 8.5-8 1 0 1-1 0 0 2.5-1 2.5-1 2.5-2 0-1 1-1 1 0 3-1 0-1 1-1 0 0 1 0 0-1 2.5-1.5 2.5-0.5 2.5-1.5 0 0 3-1 4-1 8.5-2 4.5-1 7.5-2 0 0 3 0l9-1h9v-24q0-31 0.5-31 0.5 0 1-5.5 0.5-5.5 1-5.5 0.5 0 1.5-4 1-4 1-4 1 0 1-0.5 0-0.5-0.5-0.5-0.5 0-0.5-1 0 0 1 0 1 0 1-1 0-1 1-1 0 0 1.5-3.5 1.5-3.5 3.5-7.5 0 0 1-3 3-3 13-13 6-6 11-8 0 0 0-1l3-1 3-2 3-1q2-1 2-1 0-1 0-1 0 0 0.5 0.5 0.5 0.5 1.5 0.5 0 0 0-1 0-1 5-2 3-1 4-1 1 0 1 0 2-1 5-1 8-1 71-1 63 0 123 0 59 1 59 2 0 1 4.5 2 4.5 1 9 2.5 4.5 1.5 4.5 2.5 0 0 6.5 5 6.5 5 13 10.5 6.5 5.5 6.5 7.5 0 0 2 3 2 2 3 4 1 2 1.5 3.5 0.5 1.5 1 1.5 0.5 0 1 2.5 0.5 2.5 1.5 2.5 2 0 2 7 0 3 1 3 0 0 1 5.5 1 5.5 2 5.5 0 0-1 28v27h67l-1-17c0-5.4 0-13.8 0-19zm56-86q4-1 5-1-1 1-5 1z"/>
</svg>