<svg version="1.2" xmlns="http://www.w3.org/2000/svg" viewBox="0 0 312 312" width="312" height="312">
	<title>favicon</title>
	<style>
		.s0 { fill: #ffffff } 
	</style>
	<path class="s0" d="m160.2 0c5.2 3 10.5 6.1 15.7 9.2q18.3 10.5 36.5 21.1 20.5 11.8 41 23.6c3.9 2.3 8 4.5 11.8 7 7.3 4.6 7.3 17 0 21.4-9.4 5.7-18.9 11.2-28.4 16.7-4.3 2.4-8.8 2.6-13.2 0.1-11-6.3-21.9-12.6-32.9-19q-14.3-8.3-28.7-16.6c-4.5-2.6-8.8-2-13.1 0.5-18.7 10.9-37.6 21.8-56.4 32.7-1.4 0.8-2.7 1.6-4.1 2.4-4.7 2.5-9.3 2.2-13.7-0.4-9.2-5.4-18.5-10.8-27.6-16.2-7.5-4.5-7.8-17.1-0.3-21.6 11.4-6.9 23.1-13.5 34.6-20.2q18.1-10.5 36.3-20.9c10.7-6.2 21.5-12.3 32.2-18.5 0.7-0.4 1.3-0.9 1.9-1.3q4.2 0 8.4 0z"/>
	<path class="s0" d="m181.8 312c-6.3-2.9-8.5-8.1-8.4-14.8q0.2-14.3 0-28.5c0-5.6 2.2-9.8 7.1-12.6 19.8-11.3 39.7-22.6 59.5-34 4.6-2.7 7.3-6.5 7.3-12.2-0.2-22.8-0.1-45.7-0.1-68.6 0-6.2 2.4-10.7 7.8-13.7 8.2-4.6 16.3-9.4 24.5-14 4.6-2.7 9.4-3.5 14.5-0.8 4.1 2.2 6 5.5 6 9.9q0 45.3 0 90.6c0 9.7-0.1 19.4 0 29 0.1 4.5-1.9 7.7-5.4 9.8-11.3 6.7-22.7 13.2-34.1 19.8q-20.4 11.8-40.7 23.5-13 7.5-25.9 15c-0.9 0.4-1.7 1-2.5 1.6z"/>
	<path class="s0" d="m121.2 312q-35.6-20.6-71.2-41.1-15.8-9.1-31.7-18.2c-4.2-2.5-6.4-5.9-6.3-11 0.1-39.5 0-79 0-118.5 0-8.1 7.1-13.9 15-11.6 4.2 1.2 8.1 3.7 12 5.8 6.5 3.6 12.8 7.4 19.2 11 4.9 2.8 6.5 7.1 6.6 12.3 0 22.9 0.1 45.8-0.1 68.7 0 6.3 3 10.2 8.1 13.2 12.9 7.3 25.8 14.8 38.7 22.2 6.2 3.5 12.4 7.2 18.7 10.6 5.7 3 8.5 7.4 8.4 13.9q-0.2 14 0 27.9c0.1 6.7-2.1 11.9-8.4 14.8z"/>
	<path class="s0" d="m157.1 129.3c2.7-3 5.2-5.8 7.9-8.4 8.9-8.5 19.6-11.7 31.8-10.2 11.3 1.4 20.3 6.9 26.1 16.7 6.8 11.5 6.6 23.5 1.5 35.5-4.6 11.1-11.9 20.4-19.8 29.2-11 12.2-23.5 22.6-36.6 32.4-2.4 1.8-5.3 3-7.9 4.6-2.3 1.5-4.5 1.2-6.4-0.2-6.3-4.4-12.8-8.4-18.6-13.4-8.7-7.5-17.2-15.4-25.2-23.6-8.9-9.1-16.5-19.3-20.8-31.4-5.8-16.3-2.6-33.7 13-44.2 10.4-7 22.1-8 34-3.7 8.4 3.1 15 8.5 20.1 15.9 0.2 0.3 0.6 0.5 0.9 0.8z"/>
</svg>